<svg width="415" height="581" viewBox="0 0 415 581" fill="none" xmlns="http://www.w3.org/2000/svg">
<g filter="url(#filter0_d_8_922)">
<rect x="94" y="73" width="254" height="393" rx="17" fill="white"/>
</g>
<path d="M208.238 116V106.925H210.729C211.374 106.925 211.974 107.04 212.527 107.271C213.081 107.502 213.565 107.825 213.98 108.239C214.398 108.654 214.722 109.136 214.953 109.686C215.188 110.236 215.305 110.83 215.305 111.468C215.305 112.11 215.19 112.705 214.959 113.255C214.728 113.802 214.403 114.282 213.985 114.696C213.571 115.107 213.085 115.428 212.527 115.659C211.974 115.886 211.374 116 210.729 116H208.238ZM210.02 114.405H210.531C210.942 114.405 211.321 114.332 211.67 114.185C212.018 114.038 212.32 113.833 212.577 113.569C212.834 113.305 213.034 112.995 213.177 112.639C213.32 112.28 213.391 111.888 213.391 111.462C213.391 111.041 213.32 110.652 213.177 110.296C213.034 109.937 212.834 109.625 212.577 109.361C212.32 109.094 212.018 108.887 211.67 108.74C211.321 108.593 210.942 108.52 210.531 108.52H210.02V114.405Z" fill="#C4CCD0"/>
<path d="M244.849 116L242.237 106.925H244.217L245.933 113.558L247.869 106.925H249.205L251.136 113.558L252.852 106.925H254.837L252.219 116H250.239L248.534 110.362L246.835 116H244.849Z" fill="#0561FC"/>
<path d="M282.82 116L283.722 106.925H285.614L287.78 112.601L289.948 106.925H291.84L292.742 116H290.96L290.399 110.126L288.325 115.774H287.231L285.163 110.126L284.596 116H282.82Z" fill="#C4CCD0"/>
<path d="M323.278 116V111.957L319.983 106.925H322.129L324.169 110.142L326.21 106.925H328.355L325.06 111.957V116H323.278Z" fill="#C4CCD0"/>
<path d="M117.381 116L111.153 101.15H114.447L118.524 111.617L122.61 101.15H125.895L119.667 116H117.381ZM126.767 116V106.784H129.53V116H126.767ZM128.153 104.867C127.853 104.867 127.577 104.795 127.325 104.651C127.079 104.501 126.881 104.3 126.731 104.048C126.581 103.796 126.506 103.52 126.506 103.22C126.506 102.92 126.581 102.647 126.731 102.401C126.881 102.155 127.079 101.96 127.325 101.816C127.577 101.666 127.853 101.591 128.153 101.591C128.453 101.591 128.726 101.666 128.972 101.816C129.218 101.96 129.413 102.155 129.557 102.401C129.707 102.647 129.782 102.92 129.782 103.22C129.782 103.52 129.707 103.796 129.557 104.048C129.413 104.3 129.218 104.501 128.972 104.651C128.726 104.795 128.453 104.867 128.153 104.867ZM134.498 116.288C133.718 116.288 133.019 116.165 132.401 115.919C131.789 115.673 131.279 115.313 130.871 114.839L132.032 112.985C132.416 113.393 132.818 113.705 133.238 113.921C133.658 114.137 134.078 114.245 134.498 114.245C134.732 114.245 134.933 114.206 135.101 114.128C135.275 114.05 135.41 113.939 135.506 113.795C135.608 113.645 135.659 113.465 135.659 113.255C135.659 113.015 135.59 112.826 135.452 112.688C135.32 112.55 135.116 112.424 134.84 112.31C134.564 112.19 134.207 112.04 133.769 111.86C133.397 111.704 133.04 111.527 132.698 111.329C132.356 111.131 132.077 110.879 131.861 110.573C131.651 110.267 131.546 109.88 131.546 109.412C131.546 108.842 131.705 108.341 132.023 107.909C132.341 107.471 132.779 107.129 133.337 106.883C133.901 106.637 134.549 106.514 135.281 106.514C135.737 106.514 136.214 106.583 136.712 106.721C137.216 106.859 137.753 107.069 138.323 107.351L137.378 109.124C136.604 108.626 135.911 108.377 135.299 108.377C134.957 108.377 134.684 108.452 134.48 108.602C134.276 108.752 134.174 108.941 134.174 109.169C134.174 109.385 134.279 109.574 134.489 109.736C134.705 109.892 134.966 110.033 135.272 110.159C135.584 110.279 135.881 110.39 136.163 110.492C136.625 110.66 137.033 110.846 137.387 111.05C137.747 111.254 138.029 111.521 138.233 111.851C138.437 112.175 138.539 112.61 138.539 113.156C138.539 113.822 138.377 114.389 138.053 114.857C137.735 115.319 137.273 115.673 136.667 115.919C136.067 116.165 135.344 116.288 134.498 116.288ZM140.19 116V106.784H142.953V116H140.19ZM141.576 104.867C141.276 104.867 141 104.795 140.748 104.651C140.502 104.501 140.304 104.3 140.154 104.048C140.004 103.796 139.929 103.52 139.929 103.22C139.929 102.92 140.004 102.647 140.154 102.401C140.304 102.155 140.502 101.96 140.748 101.816C141 101.666 141.276 101.591 141.576 101.591C141.876 101.591 142.149 101.666 142.395 101.816C142.641 101.96 142.836 102.155 142.98 102.401C143.13 102.647 143.205 102.92 143.205 103.22C143.205 103.52 143.13 103.796 142.98 104.048C142.836 104.3 142.641 104.501 142.395 104.651C142.149 104.795 141.876 104.867 141.576 104.867ZM148.487 116.288C147.569 116.288 146.855 115.997 146.345 115.415C145.835 114.827 145.58 114.008 145.58 112.958V108.881H144.347V106.784H145.58V103.328H148.343V106.784H150.368V108.881H148.343V112.76C148.343 113.108 148.412 113.372 148.55 113.552C148.694 113.732 148.895 113.822 149.153 113.822C149.441 113.822 149.717 113.726 149.981 113.534L150.674 115.748C150.362 115.916 150.011 116.048 149.621 116.144C149.237 116.24 148.859 116.288 148.487 116.288ZM154.772 116.288C153.992 116.288 153.293 116.165 152.675 115.919C152.063 115.673 151.553 115.313 151.145 114.839L152.306 112.985C152.69 113.393 153.092 113.705 153.512 113.921C153.932 114.137 154.352 114.245 154.772 114.245C155.006 114.245 155.207 114.206 155.375 114.128C155.549 114.05 155.684 113.939 155.78 113.795C155.882 113.645 155.933 113.465 155.933 113.255C155.933 113.015 155.864 112.826 155.726 112.688C155.594 112.55 155.39 112.424 155.114 112.31C154.838 112.19 154.481 112.04 154.043 111.86C153.671 111.704 153.314 111.527 152.972 111.329C152.63 111.131 152.351 110.879 152.135 110.573C151.925 110.267 151.82 109.88 151.82 109.412C151.82 108.842 151.979 108.341 152.297 107.909C152.615 107.471 153.053 107.129 153.611 106.883C154.175 106.637 154.823 106.514 155.555 106.514C156.011 106.514 156.488 106.583 156.986 106.721C157.49 106.859 158.027 107.069 158.597 107.351L157.652 109.124C156.878 108.626 156.185 108.377 155.573 108.377C155.231 108.377 154.958 108.452 154.754 108.602C154.55 108.752 154.448 108.941 154.448 109.169C154.448 109.385 154.553 109.574 154.763 109.736C154.979 109.892 155.24 110.033 155.546 110.159C155.858 110.279 156.155 110.39 156.437 110.492C156.899 110.66 157.307 110.846 157.661 111.05C158.021 111.254 158.303 111.521 158.507 111.851C158.711 112.175 158.813 112.61 158.813 113.156C158.813 113.822 158.651 114.389 158.327 114.857C158.009 115.319 157.547 115.673 156.941 115.919C156.341 116.165 155.618 116.288 154.772 116.288Z" fill="black"/>
<rect x="114" y="252" width="18" height="165" rx="6" fill="#0561FC"/>
<rect x="147" y="177" width="18" height="240" rx="6" fill="#0561FC"/>
<rect x="180" y="279" width="17" height="138" rx="6" fill="#0561FC"/>
<rect x="212" y="351" width="18" height="66" rx="6" fill="#0561FC"/>
<rect x="245" y="231" width="17" height="186" rx="6" fill="#0561FC"/>
<rect x="277" y="384" width="18" height="33" rx="6" fill="#0561FC"/>
<rect x="310" y="399" width="18" height="18" rx="6" fill="#0561FC"/>
<path d="M125.91 438.27L126.416 443H127.681L126.636 434.805L123.501 440.14L120.366 434.805L119.321 443H120.586L121.092 438.27L123.501 442.285L125.91 438.27Z" fill="#575C5F"/>
<path d="M153.58 436.4H155.56V443H156.77V436.4H158.75V435.3H153.58V436.4Z" fill="#575C5F"/>
<path d="M188.047 440.58L186.155 435.3H184.78L187.97 443.495L190.335 437.72L192.7 443.495L195.89 435.3H194.515L192.623 440.58L190.335 434.805L188.047 440.58Z" fill="#575C5F"/>
<path d="M221.914 436.4H223.894V443H225.104V436.4H227.084V435.3H221.914V436.4Z" fill="#575C5F"/>
<path d="M254.843 439.37H257.758V438.27H254.843V436.4H257.868V435.3H253.633V443H254.843V439.37Z" fill="#575C5F"/>
<path d="M285.512 440.404L284.544 441.042C285.028 442.307 285.985 443.22 287.47 443.22C289.109 443.22 290.066 442.329 290.066 440.91C290.066 439.403 288.801 438.765 287.998 438.479C287.118 438.16 286.337 437.852 286.337 437.126C286.337 436.565 286.722 436.191 287.382 436.191C288.262 436.191 288.658 436.818 288.988 437.456L289.923 436.774C289.615 435.993 288.944 435.08 287.481 435.08C286.117 435.08 285.083 435.894 285.083 437.06C285.083 438.457 286.271 439.095 287.041 439.37C287.921 439.689 288.823 439.997 288.823 440.987C288.823 441.647 288.284 442.12 287.514 442.12C286.557 442.12 285.974 441.46 285.512 440.404Z" fill="#575C5F"/>
<path d="M317.679 440.404L316.711 441.042C317.195 442.307 318.152 443.22 319.637 443.22C321.276 443.22 322.233 442.329 322.233 440.91C322.233 439.403 320.968 438.765 320.165 438.479C319.285 438.16 318.504 437.852 318.504 437.126C318.504 436.565 318.889 436.191 319.549 436.191C320.429 436.191 320.825 436.818 321.155 437.456L322.09 436.774C321.782 435.993 321.111 435.08 319.648 435.08C318.284 435.08 317.25 435.894 317.25 437.06C317.25 438.457 318.438 439.095 319.208 439.37C320.088 439.689 320.99 439.997 320.99 440.987C320.99 441.647 320.451 442.12 319.681 442.12C318.724 442.12 318.141 441.46 317.679 440.404Z" fill="#575C5F"/>
<defs>
<filter id="filter0_d_8_922" x="0" y="0" width="442" height="581" filterUnits="userSpaceOnUse" color-interpolation-filters="sRGB">
<feFlood flood-opacity="0" result="BackgroundImageFix"/>
<feColorMatrix in="SourceAlpha" type="matrix" values="0 0 0 0 0 0 0 0 0 0 0 0 0 0 0 0 0 0 127 0" result="hardAlpha"/>
<feOffset dy="21"/>
<feGaussianBlur stdDeviation="47"/>
<feComposite in2="hardAlpha" operator="out"/>
<feColorMatrix type="matrix" values="0 0 0 0 0 0 0 0 0 0 0 0 0 0 0 0 0 0 0.03 0"/>
<feBlend mode="normal" in2="BackgroundImageFix" result="effect1_dropShadow_8_922"/>
<feBlend mode="normal" in="SourceGraphic" in2="effect1_dropShadow_8_922" result="shape"/>
</filter>
</defs>
</svg>
