<svg width="967" height="581" viewBox="0 0 967 581" fill="none" xmlns="http://www.w3.org/2000/svg">
<g filter="url(#filter0_d_8_923)">
<rect x="94" y="73" width="779" height="393" rx="17" fill="white"/>
</g>
<path d="M177.279 438.236L177.785 442.966H179.05L178.005 434.771L174.87 440.106L171.735 434.771L170.69 442.966H171.955L172.461 438.236L174.87 442.251L177.279 438.236ZM180.949 440.436C180.949 439.435 181.631 438.731 182.566 438.731C183.501 438.731 184.183 439.435 184.183 440.436C184.183 441.437 183.501 442.141 182.566 442.141C181.631 442.141 180.949 441.437 180.949 440.436ZM179.783 440.436C179.783 442.075 181.026 443.186 182.566 443.186C184.106 443.186 185.349 442.075 185.349 440.436C185.349 438.797 184.106 437.686 182.566 437.686C181.026 437.686 179.783 438.797 179.783 440.436ZM187.953 439.886C187.953 439.16 188.58 438.731 189.24 438.731C189.845 438.731 190.208 439.05 190.208 439.886V442.966H191.363V439.776C191.363 438.247 190.615 437.686 189.57 437.686C188.987 437.686 188.349 438.071 187.953 438.654V437.906H186.798V442.966H187.953V439.886Z" fill="#575C5F"/>
<path d="M281.787 436.366H283.767V442.966H284.977V436.366H286.957V435.266H281.787V436.366ZM290.659 440.986C290.659 441.712 290.032 442.141 289.372 442.141C288.767 442.141 288.404 441.822 288.404 440.986V437.906H287.249V441.096C287.249 442.625 287.997 443.186 289.042 443.186C289.625 443.186 290.263 442.801 290.659 442.218V442.966H291.814V437.906H290.659V440.986ZM294.437 440.711H298.463C298.485 440.568 298.485 440.425 298.485 440.337C298.485 438.742 297.473 437.686 295.933 437.686C294.338 437.686 293.26 438.907 293.26 440.436C293.26 441.965 294.228 443.186 295.933 443.186C297.132 443.186 297.858 442.669 298.364 441.899L297.495 441.36C297.154 441.91 296.56 442.141 295.933 442.141C295.152 442.141 294.536 441.602 294.437 440.711ZM297.242 439.787H294.481C294.635 439.127 295.262 438.676 295.933 438.676C296.67 438.676 297.121 439.094 297.242 439.787Z" fill="#575C5F"/>
<path d="M390.786 440.546L388.894 435.266H387.519L390.709 443.461L393.074 437.686L395.439 443.461L398.629 435.266H397.254L395.362 440.546L393.074 434.771L390.786 440.546ZM399.653 440.711H403.679C403.701 440.568 403.701 440.425 403.701 440.337C403.701 438.742 402.689 437.686 401.149 437.686C399.554 437.686 398.476 438.907 398.476 440.436C398.476 441.965 399.444 443.186 401.149 443.186C402.348 443.186 403.074 442.669 403.58 441.899L402.711 441.36C402.37 441.91 401.776 442.141 401.149 442.141C400.368 442.141 399.752 441.602 399.653 440.711ZM402.458 439.787H399.697C399.851 439.127 400.478 438.676 401.149 438.676C401.886 438.676 402.337 439.094 402.458 439.787ZM405.929 440.436C405.929 439.38 406.611 438.731 407.546 438.731C408.316 438.731 409.108 439.27 409.108 440.436C409.108 441.602 408.316 442.141 407.546 442.141C406.611 442.141 405.929 441.492 405.929 440.436ZM404.763 440.436C404.763 442.185 405.951 443.186 407.326 443.186C408.085 443.186 408.723 442.779 409.108 442.097V442.966H410.263V434.386H409.108V438.775C408.723 438.093 408.085 437.686 407.326 437.686C405.951 437.686 404.763 438.687 404.763 440.436Z" fill="#575C5F"/>
<path d="M499.32 436.366H501.3V442.966H502.51V436.366H504.49V435.266H499.32V436.366ZM506.873 439.886C506.873 439.16 507.5 438.731 508.16 438.731C508.765 438.731 509.128 439.05 509.128 439.886V442.966H510.283V439.776C510.283 438.247 509.535 437.686 508.49 437.686C507.907 437.686 507.269 438.071 506.873 438.654V434.386H505.718V442.966H506.873V439.886ZM515.413 440.986C515.413 441.712 514.786 442.141 514.126 442.141C513.521 442.141 513.158 441.822 513.158 440.986V437.906H512.003V441.096C512.003 442.625 512.751 443.186 513.796 443.186C514.379 443.186 515.017 442.801 515.413 442.218V442.966H516.568V437.906H515.413V440.986Z" fill="#575C5F"/>
<path d="M612.978 439.336H615.893V438.236H612.978V436.366H616.003V435.266H611.768V442.966H612.978V439.336ZM620.074 438.984L620.558 438.038C620.294 437.763 619.975 437.686 619.612 437.686C619.216 437.686 618.787 437.994 618.49 438.478V437.906H617.28V442.966H618.49V439.886C618.49 439.16 618.732 438.731 619.337 438.731C619.623 438.731 619.832 438.808 620.074 438.984ZM621.675 437.906V442.966H622.841V437.906H621.675ZM621.51 435.926C621.51 436.322 621.84 436.641 622.258 436.641C622.676 436.641 623.006 436.322 623.006 435.926C623.006 435.53 622.676 435.211 622.258 435.211C621.84 435.211 621.51 435.53 621.51 435.926Z" fill="#575C5F"/>
<path d="M719.793 440.37L718.825 441.008C719.309 442.273 720.266 443.186 721.751 443.186C723.39 443.186 724.347 442.295 724.347 440.876C724.347 439.369 723.082 438.731 722.279 438.445C721.399 438.126 720.618 437.818 720.618 437.092C720.618 436.531 721.003 436.157 721.663 436.157C722.543 436.157 722.939 436.784 723.269 437.422L724.204 436.74C723.896 435.959 723.225 435.046 721.762 435.046C720.398 435.046 719.364 435.86 719.364 437.026C719.364 438.423 720.552 439.061 721.322 439.336C722.202 439.655 723.104 439.963 723.104 440.953C723.104 441.613 722.565 442.086 721.795 442.086C720.838 442.086 720.255 441.426 719.793 440.37ZM726.575 441.426C726.575 441.008 727.07 440.601 727.884 440.601C728.291 440.601 728.654 440.656 729.039 440.799V440.986C729.039 441.932 728.522 442.185 727.642 442.185C727.147 442.185 726.575 441.932 726.575 441.426ZM726.41 439.248C726.652 439.072 727.246 438.753 727.972 438.753C728.522 438.753 729.039 438.896 729.039 439.336V440.062C728.731 439.897 728.302 439.765 727.73 439.765C726.509 439.765 725.464 440.359 725.464 441.536C725.464 442.735 726.377 443.186 727.312 443.186C728.071 443.186 728.731 442.834 729.039 442.262V442.966H730.194V439.336C730.194 438.247 729.237 437.686 727.972 437.686C727.059 437.686 726.355 438.082 725.981 438.357L726.41 439.248ZM732.075 436.146V437.906H731.25V438.951H732.075V442.966H733.23V438.951H734.055V437.906H733.23V436.146H732.075Z" fill="#575C5F"/>
<path d="M827.085 440.37L826.117 441.008C826.601 442.273 827.558 443.186 829.043 443.186C830.682 443.186 831.639 442.295 831.639 440.876C831.639 439.369 830.374 438.731 829.571 438.445C828.691 438.126 827.91 437.818 827.91 437.092C827.91 436.531 828.295 436.157 828.955 436.157C829.835 436.157 830.231 436.784 830.561 437.422L831.496 436.74C831.188 435.959 830.517 435.046 829.054 435.046C827.69 435.046 826.656 435.86 826.656 437.026C826.656 438.423 827.844 439.061 828.614 439.336C829.494 439.655 830.396 439.963 830.396 440.953C830.396 441.613 829.857 442.086 829.087 442.086C828.13 442.086 827.547 441.426 827.085 440.37ZM836.551 440.986C836.551 441.712 835.924 442.141 835.264 442.141C834.659 442.141 834.296 441.822 834.296 440.986V437.906H833.141V441.096C833.141 442.625 833.889 443.186 834.934 443.186C835.517 443.186 836.155 442.801 836.551 442.218V442.966H837.706V437.906H836.551V440.986ZM840.691 439.886C840.691 439.16 841.318 438.731 841.978 438.731C842.583 438.731 842.946 439.05 842.946 439.886V442.966H844.101V439.776C844.101 438.247 843.353 437.686 842.308 437.686C841.725 437.686 841.087 438.071 840.691 438.654V437.906H839.536V442.966H840.691V439.886Z" fill="#575C5F"/>
<path d="M123.681 158.124V159.276C122.349 159.468 121.413 160.404 121.413 161.64C121.413 163.164 122.733 163.824 123.549 164.16C124.509 164.556 125.373 164.844 125.373 165.804C125.373 166.404 124.965 166.824 124.245 166.824C123.321 166.824 122.685 166.2 122.181 165.048L120.885 165.984C121.353 167.208 122.325 168.132 123.681 168.324V169.284H124.713V168.336C126.297 168.18 127.209 167.304 127.209 165.6C127.209 164.076 125.805 163.272 124.941 162.924C123.981 162.528 123.141 162.384 123.141 161.592C123.141 161.1 123.489 160.752 124.101 160.752C124.941 160.752 125.373 161.376 125.733 162.072L126.969 161.112C126.669 160.356 125.985 159.468 124.713 159.276V158.124H123.681ZM128.808 161.712L130.908 161.124V168H132.588V159.24L128.808 160.116V161.712ZM134.669 163.8C134.669 166.668 136.301 168.3 138.149 168.3C139.997 168.3 141.629 166.668 141.629 163.8C141.629 160.932 139.997 159.3 138.149 159.3C136.301 159.3 134.669 160.932 134.669 163.8ZM136.349 163.8C136.349 161.964 136.973 160.8 138.149 160.8C139.325 160.8 139.949 161.964 139.949 163.8C139.949 165.636 139.325 166.8 138.149 166.8C136.973 166.8 136.349 165.636 136.349 163.8ZM142.745 163.8C142.745 166.668 144.377 168.3 146.225 168.3C148.073 168.3 149.705 166.668 149.705 163.8C149.705 160.932 148.073 159.3 146.225 159.3C144.377 159.3 142.745 160.932 142.745 163.8ZM144.425 163.8C144.425 161.964 145.049 160.8 146.225 160.8C147.401 160.8 148.025 161.964 148.025 163.8C148.025 165.636 147.401 166.8 146.225 166.8C145.049 166.8 144.425 165.636 144.425 163.8ZM151.181 158.64V168H152.801V165.132L155.081 168H157.121L154.541 164.76L156.881 162.48H154.793L152.801 164.424V158.64H151.181Z" fill="#ADB1B3"/>
<path d="M131.101 220.124V221.276C129.769 221.468 128.833 222.404 128.833 223.64C128.833 225.164 130.153 225.824 130.969 226.16C131.929 226.556 132.793 226.844 132.793 227.804C132.793 228.404 132.385 228.824 131.665 228.824C130.741 228.824 130.105 228.2 129.601 227.048L128.305 227.984C128.773 229.208 129.745 230.132 131.101 230.324V231.284H132.133V230.336C133.717 230.18 134.629 229.304 134.629 227.6C134.629 226.076 133.225 225.272 132.361 224.924C131.401 224.528 130.561 224.384 130.561 223.592C130.561 223.1 130.909 222.752 131.521 222.752C132.361 222.752 132.793 223.376 133.153 224.072L134.389 223.112C134.089 222.356 133.405 221.468 132.133 221.276V220.124H131.101ZM135.747 223.1H139.599L136.539 230H138.267L141.987 221.6H135.747V223.1ZM142.745 225.8C142.745 228.668 144.377 230.3 146.225 230.3C148.073 230.3 149.705 228.668 149.705 225.8C149.705 222.932 148.073 221.3 146.225 221.3C144.377 221.3 142.745 222.932 142.745 225.8ZM144.425 225.8C144.425 223.964 145.049 222.8 146.225 222.8C147.401 222.8 148.025 223.964 148.025 225.8C148.025 227.636 147.401 228.8 146.225 228.8C145.049 228.8 144.425 227.636 144.425 225.8ZM151.181 220.64V230H152.801V227.132L155.081 230H157.121L154.541 226.76L156.881 224.48H154.793L152.801 226.424V220.64H151.181Z" fill="#ADB1B3"/>
<path d="M130.456 284.124V285.276C129.124 285.468 128.188 286.404 128.188 287.64C128.188 289.164 129.508 289.824 130.324 290.16C131.284 290.556 132.148 290.844 132.148 291.804C132.148 292.404 131.74 292.824 131.02 292.824C130.096 292.824 129.46 292.2 128.956 291.048L127.66 291.984C128.128 293.208 129.1 294.132 130.456 294.324V295.284H131.488V294.336C133.072 294.18 133.984 293.304 133.984 291.6C133.984 290.076 132.58 289.272 131.716 288.924C130.756 288.528 129.916 288.384 129.916 287.592C129.916 287.1 130.264 286.752 130.876 286.752C131.716 286.752 132.148 287.376 132.508 288.072L133.744 287.112C133.444 286.356 132.76 285.468 131.488 285.276V284.124H130.456ZM141.511 291.24C141.511 289.092 140.191 288.3 138.931 288.3C138.487 288.3 138.031 288.348 137.611 288.564L138.031 286.92H141.127V285.6H136.687L135.691 290.436C136.783 289.836 137.287 289.68 138.211 289.68C139.351 289.68 139.795 290.268 139.795 291.24C139.795 292.212 139.111 292.74 138.211 292.74C137.287 292.74 136.699 292.248 136.327 291.528L134.983 292.536C135.535 293.496 136.663 294.3 138.211 294.3C139.831 294.3 141.511 293.508 141.511 291.24ZM142.745 289.8C142.745 292.668 144.377 294.3 146.225 294.3C148.073 294.3 149.705 292.668 149.705 289.8C149.705 286.932 148.073 285.3 146.225 285.3C144.377 285.3 142.745 286.932 142.745 289.8ZM144.425 289.8C144.425 287.964 145.049 286.8 146.225 286.8C147.401 286.8 148.025 287.964 148.025 289.8C148.025 291.636 147.401 292.8 146.225 292.8C145.049 292.8 144.425 291.636 144.425 289.8ZM151.181 284.64V294H152.801V291.132L155.081 294H157.121L154.541 290.76L156.881 288.48H154.793L152.801 290.424V284.64H151.181Z" fill="#ADB1B3"/>
<path d="M130.808 348.124V349.276C129.476 349.468 128.54 350.404 128.54 351.64C128.54 353.164 129.86 353.824 130.676 354.16C131.636 354.556 132.5 354.844 132.5 355.804C132.5 356.404 132.092 356.824 131.372 356.824C130.448 356.824 129.812 356.2 129.308 355.048L128.012 355.984C128.48 357.208 129.452 358.132 130.808 358.324V359.284H131.84V358.336C133.424 358.18 134.336 357.304 134.336 355.6C134.336 354.076 132.932 353.272 132.068 352.924C131.108 352.528 130.268 352.384 130.268 351.592C130.268 351.1 130.616 350.752 131.228 350.752C132.068 350.752 132.5 351.376 132.86 352.072L134.096 351.112C133.796 350.356 133.112 349.468 131.84 349.276V348.124H130.808ZM139.907 351.928C139.907 352.6 139.739 353.224 138.947 353.98L134.855 358H141.623V356.56H138.119L140.171 354.796C140.987 354.1 141.563 353.092 141.563 351.928C141.563 350.62 140.639 349.288 138.659 349.288C136.679 349.288 135.455 350.692 135.455 352.48H137.075C137.075 351.328 137.699 350.788 138.659 350.788C139.499 350.788 139.907 351.352 139.907 351.928ZM142.745 353.8C142.745 356.668 144.377 358.3 146.225 358.3C148.073 358.3 149.705 356.668 149.705 353.8C149.705 350.932 148.073 349.3 146.225 349.3C144.377 349.3 142.745 350.932 142.745 353.8ZM144.425 353.8C144.425 351.964 145.049 350.8 146.225 350.8C147.401 350.8 148.025 351.964 148.025 353.8C148.025 355.636 147.401 356.8 146.225 356.8C145.049 356.8 144.425 355.636 144.425 353.8ZM151.181 348.64V358H152.801V355.132L155.081 358H157.121L154.541 354.76L156.881 352.48H154.793L152.801 354.424V348.64H151.181Z" fill="#ADB1B3"/>
<path d="M149.684 417.8C149.684 420.668 151.316 422.3 153.164 422.3C155.012 422.3 156.644 420.668 156.644 417.8C156.644 414.932 155.012 413.3 153.164 413.3C151.316 413.3 149.684 414.932 149.684 417.8ZM151.364 417.8C151.364 415.964 151.988 414.8 153.164 414.8C154.34 414.8 154.964 415.964 154.964 417.8C154.964 419.636 154.34 420.8 153.164 420.8C151.988 420.8 151.364 419.636 151.364 417.8Z" fill="#ADB1B3"/>
<rect x="180.247" y="162.966" width="1" height="260" fill="#F1F3F4"/>
<rect x="288.839" y="162.966" width="1" height="260" fill="#F1F3F4"/>
<rect x="397.432" y="162.966" width="1" height="260" fill="#F1F3F4"/>
<rect x="506.025" y="162.966" width="1" height="260" fill="#F1F3F4"/>
<rect x="614.617" y="162.966" width="1" height="260" fill="#F1F3F4"/>
<rect x="723.21" y="162.966" width="1" height="260" fill="#F1F3F4"/>
<rect x="180" y="354" width="1" height="653" transform="rotate(-90 180 354)" fill="#F1F3F4"/>
<rect x="180" y="292" width="1" height="653" transform="rotate(-90 180 292)" fill="#F1F3F4"/>
<rect x="180" y="228" width="1" height="653" transform="rotate(-90 180 228)" fill="#F1F3F4"/>
<rect x="180" y="164" width="1" height="653" transform="rotate(-90 180 164)" fill="#F1F3F4"/>
<rect x="163.247" y="415.856" width="687.753" height="1.24576" fill="#E5E5E5"/>
<path d="M328.044 311.5L291.157 292.5L255.267 311.5H214.392L179 416H833V197L766.703 230L699.907 356L654.795 240.5H609.683L570.303 276.5L527.933 240.5L515.471 283.5H460.14L419.265 347L376.895 259.5L348.482 265.5L328.044 311.5Z" fill="url(#paint0_linear_8_923)"/>
<path d="M179 416L214.392 311.5H255.267L291.157 292.5L328.044 311.5L348.482 265.5L376.895 259.5L419.265 347L460.14 283.5H515.471L527.933 240.5L570.303 276.5L609.683 240.5H654.795L699.907 356L766.703 230L833 197" stroke="#9FC1FB" stroke-width="2"/>
<line x1="767.5" y1="162" x2="767.5" y2="416" stroke="#0561FC" stroke-dasharray="4 4"/>
<circle cx="767.5" cy="228.5" r="8.5" fill="#0561FC"/>
<circle cx="767.5" cy="228.5" r="4.5" fill="white"/>
<path d="M771 206C771 201.582 774.582 198 779 198H819C823.418 198 827 201.582 827 206V210C827 214.418 823.418 218 819 218H771V206Z" fill="#637EB4"/>
<path d="M779.06 212.242V211.135C778.814 211.129 778.568 211.093 778.322 211.027C778.076 210.961 777.841 210.872 777.616 210.761C777.391 210.65 777.188 210.524 777.008 210.383C776.831 210.242 776.69 210.092 776.585 209.933L777.202 208.984C777.367 209.197 777.563 209.383 777.791 209.542C778.019 209.701 778.262 209.825 778.52 209.915C778.778 210.002 779.032 210.046 779.281 210.046C779.527 210.046 779.743 210.002 779.929 209.915C780.118 209.828 780.265 209.704 780.37 209.542C780.478 209.38 780.532 209.191 780.532 208.975C780.532 208.771 780.485 208.595 780.392 208.448C780.302 208.301 780.176 208.172 780.014 208.061C779.852 207.947 779.662 207.841 779.443 207.742C779.227 207.64 778.991 207.533 778.736 207.422C778.436 207.29 778.168 207.142 777.931 206.977C777.694 206.812 777.506 206.614 777.368 206.383C777.23 206.152 777.161 205.877 777.161 205.559C777.161 205.223 777.239 204.908 777.395 204.614C777.551 204.317 777.77 204.067 778.052 203.863C778.337 203.659 778.673 203.53 779.06 203.476V202.333H779.762V203.458C780.098 203.491 780.425 203.584 780.743 203.737C781.064 203.887 781.319 204.068 781.508 204.281L780.991 205.186C780.817 204.988 780.589 204.826 780.307 204.7C780.028 204.574 779.743 204.511 779.452 204.511C779.227 204.511 779.027 204.554 778.853 204.641C778.682 204.728 778.547 204.847 778.448 204.997C778.352 205.147 778.304 205.315 778.304 205.501C778.304 205.711 778.364 205.883 778.484 206.019C778.604 206.153 778.757 206.267 778.943 206.36C779.132 206.45 779.33 206.536 779.537 206.617C779.894 206.758 780.212 206.903 780.491 207.053C780.773 207.2 781.012 207.362 781.207 207.539C781.402 207.716 781.55 207.919 781.652 208.147C781.754 208.372 781.805 208.634 781.805 208.934C781.805 209.327 781.721 209.678 781.553 209.987C781.385 210.293 781.148 210.542 780.842 210.734C780.539 210.926 780.179 211.047 779.762 211.095V212.242H779.06ZM782.881 211L786.458 204.61H783.029V203.575H788.2V203.93L784.276 211H782.881ZM792.033 211.144C791.427 211.144 790.895 210.984 790.436 210.662C789.98 210.338 789.624 209.887 789.369 209.308C789.117 208.729 788.991 208.057 788.991 207.292C788.991 206.524 789.117 205.852 789.369 205.276C789.624 204.697 789.98 204.247 790.436 203.926C790.895 203.602 791.427 203.44 792.033 203.44C792.642 203.44 793.175 203.602 793.631 203.926C794.087 204.247 794.441 204.697 794.693 205.276C794.948 205.852 795.075 206.524 795.075 207.292C795.075 208.057 794.948 208.729 794.693 209.308C794.441 209.887 794.087 210.338 793.631 210.662C793.175 210.984 792.642 211.144 792.033 211.144ZM792.033 210.1C792.399 210.1 792.716 209.986 792.983 209.758C793.253 209.53 793.461 209.206 793.608 208.786C793.758 208.363 793.833 207.865 793.833 207.292C793.833 206.716 793.758 206.218 793.608 205.798C793.461 205.378 793.253 205.054 792.983 204.826C792.716 204.598 792.399 204.484 792.033 204.484C791.67 204.484 791.354 204.598 791.084 204.826C790.814 205.054 790.604 205.378 790.454 205.798C790.307 206.218 790.233 206.716 790.233 207.292C790.233 207.865 790.307 208.363 790.454 208.786C790.604 209.206 790.814 209.53 791.084 209.758C791.354 209.986 791.67 210.1 792.033 210.1ZM797.461 211.144C797.323 211.144 797.197 211.11 797.083 211.041C796.972 210.975 796.882 210.886 796.813 210.775C796.747 210.661 796.714 210.536 796.714 210.401C796.714 210.263 796.747 210.139 796.813 210.028C796.882 209.917 796.972 209.828 797.083 209.762C797.197 209.693 797.323 209.659 797.461 209.659C797.599 209.659 797.723 209.693 797.834 209.762C797.945 209.828 798.034 209.917 798.1 210.028C798.166 210.139 798.199 210.263 798.199 210.401C798.199 210.536 798.166 210.661 798.1 210.775C798.034 210.886 797.945 210.975 797.834 211.041C797.723 211.11 797.599 211.144 797.461 211.144ZM802.896 211.144C802.29 211.144 801.758 210.984 801.299 210.662C800.843 210.338 800.487 209.887 800.232 209.308C799.98 208.729 799.854 208.057 799.854 207.292C799.854 206.524 799.98 205.852 800.232 205.276C800.487 204.697 800.843 204.247 801.299 203.926C801.758 203.602 802.29 203.44 802.896 203.44C803.505 203.44 804.038 203.602 804.494 203.926C804.95 204.247 805.304 204.697 805.556 205.276C805.811 205.852 805.938 206.524 805.938 207.292C805.938 208.057 805.811 208.729 805.556 209.308C805.304 209.887 804.95 210.338 804.494 210.662C804.038 210.984 803.505 211.144 802.896 211.144ZM802.896 210.1C803.262 210.1 803.579 209.986 803.846 209.758C804.116 209.53 804.324 209.206 804.471 208.786C804.621 208.363 804.696 207.865 804.696 207.292C804.696 206.716 804.621 206.218 804.471 205.798C804.324 205.378 804.116 205.054 803.846 204.826C803.579 204.598 803.262 204.484 802.896 204.484C802.533 204.484 802.217 204.598 801.947 204.826C801.677 205.054 801.467 205.378 801.317 205.798C801.17 206.218 801.096 206.716 801.096 207.292C801.096 207.865 801.17 208.363 801.317 208.786C801.467 209.206 801.677 209.53 801.947 209.758C802.217 209.986 802.533 210.1 802.896 210.1ZM810.174 211.144C809.568 211.144 809.035 210.984 808.576 210.662C808.12 210.338 807.765 209.887 807.51 209.308C807.258 208.729 807.132 208.057 807.132 207.292C807.132 206.524 807.258 205.852 807.51 205.276C807.765 204.697 808.12 204.247 808.576 203.926C809.035 203.602 809.568 203.44 810.174 203.44C810.783 203.44 811.315 203.602 811.771 203.926C812.227 204.247 812.581 204.697 812.833 205.276C813.088 205.852 813.216 206.524 813.216 207.292C813.216 208.057 813.088 208.729 812.833 209.308C812.581 209.887 812.227 210.338 811.771 210.662C811.315 210.984 810.783 211.144 810.174 211.144ZM810.174 210.1C810.54 210.1 810.856 209.986 811.123 209.758C811.393 209.53 811.602 209.206 811.749 208.786C811.899 208.363 811.974 207.865 811.974 207.292C811.974 206.716 811.899 206.218 811.749 205.798C811.602 205.378 811.393 205.054 811.123 204.826C810.856 204.598 810.54 204.484 810.174 204.484C809.811 204.484 809.494 204.598 809.224 204.826C808.954 205.054 808.744 205.378 808.594 205.798C808.447 206.218 808.374 206.716 808.374 207.292C808.374 207.865 808.447 208.363 808.594 208.786C808.744 209.206 808.954 209.53 809.224 209.758C809.494 209.986 809.811 210.1 810.174 210.1ZM817.451 211.144C816.845 211.144 816.313 210.984 815.854 210.662C815.398 210.338 815.042 209.887 814.787 209.308C814.535 208.729 814.409 208.057 814.409 207.292C814.409 206.524 814.535 205.852 814.787 205.276C815.042 204.697 815.398 204.247 815.854 203.926C816.313 203.602 816.845 203.44 817.451 203.44C818.06 203.44 818.593 203.602 819.049 203.926C819.505 204.247 819.859 204.697 820.111 205.276C820.366 205.852 820.493 206.524 820.493 207.292C820.493 208.057 820.366 208.729 820.111 209.308C819.859 209.887 819.505 210.338 819.049 210.662C818.593 210.984 818.06 211.144 817.451 211.144ZM817.451 210.1C817.817 210.1 818.134 209.986 818.401 209.758C818.671 209.53 818.879 209.206 819.026 208.786C819.176 208.363 819.251 207.865 819.251 207.292C819.251 206.716 819.176 206.218 819.026 205.798C818.879 205.378 818.671 205.054 818.401 204.826C818.134 204.598 817.817 204.484 817.451 204.484C817.088 204.484 816.772 204.598 816.502 204.826C816.232 205.054 816.022 205.378 815.872 205.798C815.725 206.218 815.651 206.716 815.651 207.292C815.651 207.865 815.725 208.363 815.872 208.786C816.022 209.206 816.232 209.53 816.502 209.758C816.772 209.986 817.088 210.1 817.451 210.1Z" fill="white"/>
<path d="M118.8 115V101.8H123.296C124.197 101.8 124.979 101.96 125.64 102.28C126.307 102.595 126.821 103.051 127.184 103.648C127.552 104.24 127.736 104.955 127.736 105.792C127.736 106.453 127.619 107.051 127.384 107.584C127.149 108.112 126.813 108.557 126.376 108.92C125.939 109.283 125.408 109.552 124.784 109.728L129.104 115H125.816L122.008 110.024H121.392V115H118.8ZM121.392 107.864H122.496C123.035 107.864 123.491 107.787 123.864 107.632C124.237 107.477 124.523 107.251 124.72 106.952C124.923 106.648 125.024 106.285 125.024 105.864C125.024 105.224 124.803 104.733 124.36 104.392C123.923 104.045 123.301 103.872 122.496 103.872H121.392V107.864ZM133.272 115.256C132.386 115.256 131.592 115.067 130.888 114.688C130.189 114.304 129.634 113.784 129.223 113.128C128.813 112.472 128.607 111.731 128.607 110.904C128.607 110.296 128.722 109.728 128.951 109.2C129.186 108.672 129.511 108.211 129.928 107.816C130.343 107.416 130.826 107.107 131.375 106.888C131.925 106.664 132.52 106.552 133.16 106.552C134.013 106.552 134.76 106.731 135.4 107.088C136.045 107.44 136.546 107.931 136.904 108.56C137.266 109.189 137.448 109.923 137.448 110.76C137.448 110.829 137.445 110.891 137.439 110.944C137.439 110.992 137.432 111.085 137.416 111.224H131.135C131.135 111.64 131.229 112.003 131.415 112.312C131.607 112.621 131.874 112.864 132.215 113.04C132.557 113.211 132.954 113.296 133.408 113.296C133.834 113.296 134.21 113.213 134.536 113.048C134.866 112.883 135.184 112.619 135.488 112.256L137.255 113.144C136.872 113.805 136.328 114.323 135.624 114.696C134.92 115.069 134.136 115.256 133.272 115.256ZM131.224 109.864H135.032C134.978 109.549 134.863 109.277 134.688 109.048C134.517 108.819 134.298 108.643 134.031 108.52C133.765 108.397 133.464 108.336 133.128 108.336C132.77 108.336 132.455 108.397 132.183 108.52C131.911 108.643 131.693 108.819 131.527 109.048C131.362 109.277 131.261 109.549 131.224 109.864ZM138.832 119.16V106.808H141.288V107.808C141.619 107.408 142.03 107.099 142.52 106.88C143.011 106.661 143.539 106.552 144.104 106.552C144.894 106.552 145.595 106.741 146.208 107.12C146.827 107.499 147.312 108.016 147.664 108.672C148.022 109.328 148.2 110.072 148.2 110.904C148.2 111.725 148.024 112.467 147.672 113.128C147.32 113.784 146.838 114.304 146.224 114.688C145.616 115.067 144.928 115.256 144.16 115.256C143.6 115.256 143.072 115.141 142.576 114.912C142.08 114.677 141.651 114.347 141.288 113.92V119.16H138.832ZM143.432 113.168C143.859 113.168 144.235 113.072 144.56 112.88C144.891 112.683 145.15 112.416 145.336 112.08C145.523 111.739 145.616 111.349 145.616 110.912C145.616 110.475 145.52 110.085 145.328 109.744C145.136 109.403 144.878 109.133 144.552 108.936C144.227 108.739 143.854 108.64 143.432 108.64C143.011 108.64 142.632 108.739 142.296 108.936C141.966 109.133 141.704 109.403 141.512 109.744C141.32 110.08 141.224 110.469 141.224 110.912C141.224 111.344 141.318 111.731 141.504 112.072C141.696 112.413 141.96 112.683 142.296 112.88C142.632 113.072 143.011 113.168 143.432 113.168ZM153.737 115.256C152.836 115.256 152.023 115.072 151.297 114.704C150.572 114.331 149.996 113.819 149.569 113.168C149.143 112.512 148.929 111.757 148.929 110.904C148.929 110.051 149.14 109.299 149.561 108.648C149.988 107.992 150.564 107.48 151.289 107.112C152.02 106.739 152.836 106.552 153.737 106.552C154.644 106.552 155.46 106.739 156.185 107.112C156.911 107.48 157.484 107.992 157.905 108.648C158.332 109.299 158.545 110.051 158.545 110.904C158.545 111.757 158.332 112.512 157.905 113.168C157.484 113.819 156.911 114.331 156.185 114.704C155.46 115.072 154.644 115.256 153.737 115.256ZM153.745 113.16C154.161 113.16 154.54 113.064 154.881 112.872C155.223 112.68 155.492 112.416 155.689 112.08C155.887 111.739 155.985 111.347 155.985 110.904C155.985 110.461 155.887 110.072 155.689 109.736C155.492 109.395 155.223 109.128 154.881 108.936C154.54 108.744 154.161 108.648 153.745 108.648C153.324 108.648 152.943 108.744 152.601 108.936C152.265 109.128 151.999 109.395 151.801 109.736C151.604 110.072 151.505 110.461 151.505 110.904C151.505 111.347 151.604 111.739 151.801 112.08C151.999 112.416 152.265 112.68 152.601 112.872C152.943 113.064 153.324 113.16 153.745 113.16ZM159.889 115V106.808H162.345V107.984C162.649 107.525 163.019 107.173 163.457 106.928C163.899 106.677 164.374 106.552 164.881 106.552C165.169 106.552 165.467 106.595 165.777 106.68C166.086 106.765 166.345 106.875 166.553 107.008L165.529 109.08C165.347 108.957 165.134 108.861 164.889 108.792C164.649 108.717 164.425 108.68 164.217 108.68C163.897 108.68 163.593 108.763 163.305 108.928C163.017 109.093 162.785 109.309 162.609 109.576C162.433 109.837 162.345 110.12 162.345 110.424V115H159.889ZM169.944 115.256C169.128 115.256 168.493 114.997 168.04 114.48C167.587 113.957 167.36 113.229 167.36 112.296V108.672H166.264V106.808H167.36V103.736H169.816V106.808H171.616V108.672H169.816V112.12C169.816 112.429 169.877 112.664 170 112.824C170.128 112.984 170.307 113.064 170.536 113.064C170.792 113.064 171.037 112.979 171.272 112.808L171.888 114.776C171.611 114.925 171.299 115.043 170.952 115.128C170.611 115.213 170.275 115.256 169.944 115.256Z" fill="black"/>
<path d="M209.652 114.176C209.216 114.176 208.82 114.121 208.464 114.011C208.108 113.901 207.795 113.765 207.524 113.604C207.256 113.439 207.03 113.274 206.847 113.109C206.664 112.944 206.524 112.808 206.429 112.702L207.188 111.536C207.291 111.642 207.419 111.769 207.573 111.915C207.731 112.062 207.914 112.207 208.123 112.35C208.332 112.489 208.567 112.607 208.827 112.702C209.087 112.794 209.375 112.839 209.691 112.839C209.988 112.839 210.253 112.79 210.488 112.691C210.723 112.592 210.91 112.445 211.049 112.251C211.188 112.053 211.258 111.809 211.258 111.519C211.258 111.266 211.205 111.05 211.099 110.87C210.996 110.691 210.847 110.535 210.653 110.403C210.459 110.267 210.228 110.139 209.96 110.018C209.692 109.893 209.394 109.765 209.064 109.633C208.829 109.534 208.596 109.418 208.365 109.286C208.138 109.154 207.931 108.997 207.744 108.813C207.56 108.63 207.414 108.419 207.304 108.181C207.194 107.939 207.139 107.66 207.139 107.345C207.139 107.004 207.205 106.679 207.337 106.371C207.472 106.06 207.663 105.783 207.909 105.541C208.154 105.299 208.446 105.108 208.783 104.969C209.124 104.83 209.504 104.76 209.922 104.76C210.263 104.76 210.594 104.809 210.917 104.908C211.24 105.007 211.533 105.136 211.797 105.293C212.065 105.451 212.283 105.62 212.452 105.799L211.825 106.894C211.685 106.751 211.518 106.617 211.324 106.492C211.133 106.364 210.921 106.261 210.686 106.184C210.451 106.107 210.206 106.069 209.949 106.069C209.648 106.069 209.394 106.128 209.185 106.245C208.976 106.362 208.814 106.516 208.701 106.707C208.591 106.894 208.536 107.097 208.536 107.317C208.536 107.508 208.574 107.671 208.651 107.807C208.732 107.939 208.842 108.053 208.981 108.148C209.12 108.243 209.28 108.331 209.46 108.412C209.643 108.489 209.835 108.566 210.037 108.643C210.437 108.804 210.805 108.969 211.143 109.138C211.484 109.303 211.779 109.492 212.028 109.704C212.277 109.913 212.47 110.163 212.606 110.452C212.745 110.738 212.815 111.083 212.815 111.486C212.815 112.051 212.679 112.535 212.408 112.938C212.14 113.342 211.768 113.65 211.291 113.862C210.818 114.072 210.272 114.176 209.652 114.176ZM216.391 114.176C215.87 114.176 215.397 114.048 214.972 113.791C214.55 113.531 214.215 113.175 213.965 112.724C213.72 112.273 213.597 111.758 213.597 111.178C213.597 110.606 213.716 110.097 213.954 109.649C214.196 109.198 214.528 108.843 214.95 108.582C215.371 108.322 215.852 108.192 216.391 108.192C216.831 108.192 217.236 108.284 217.606 108.467C217.977 108.65 218.27 108.905 218.486 109.231V108.368H219.856V114H218.486V113.098C218.237 113.439 217.931 113.705 217.568 113.895C217.208 114.083 216.816 114.176 216.391 114.176ZM216.781 113.004C217.122 113.004 217.423 112.927 217.683 112.773C217.944 112.616 218.149 112.399 218.299 112.124C218.45 111.849 218.525 111.536 218.525 111.184C218.525 110.828 218.45 110.515 218.299 110.243C218.149 109.968 217.944 109.754 217.683 109.6C217.423 109.442 217.122 109.363 216.781 109.363C216.444 109.363 216.143 109.442 215.879 109.6C215.615 109.754 215.408 109.968 215.258 110.243C215.107 110.518 215.032 110.832 215.032 111.184C215.032 111.536 215.107 111.849 215.258 112.124C215.408 112.399 215.615 112.616 215.879 112.773C216.143 112.927 216.444 113.004 216.781 113.004ZM221.43 114V104.54H222.8V114H221.43ZM227.055 114.176C226.454 114.176 225.915 114.046 225.438 113.785C224.965 113.525 224.59 113.169 224.311 112.718C224.036 112.267 223.898 111.76 223.898 111.195C223.898 110.777 223.977 110.386 224.135 110.023C224.293 109.66 224.511 109.341 224.789 109.066C225.068 108.791 225.393 108.577 225.763 108.423C226.133 108.269 226.533 108.192 226.962 108.192C227.549 108.192 228.062 108.313 228.502 108.555C228.946 108.797 229.29 109.134 229.536 109.567C229.785 110 229.91 110.504 229.91 111.079C229.91 111.127 229.908 111.167 229.904 111.2C229.901 111.23 229.893 111.281 229.882 111.354H225.295C225.295 111.695 225.372 111.996 225.526 112.256C225.68 112.513 225.895 112.715 226.17 112.861C226.449 113.004 226.768 113.076 227.127 113.076C227.468 113.076 227.77 113.008 228.034 112.872C228.302 112.733 228.544 112.522 228.76 112.24L229.756 112.751C229.488 113.199 229.116 113.549 228.639 113.802C228.166 114.051 227.638 114.176 227.055 114.176ZM225.356 110.496H228.551C228.504 110.24 228.407 110.018 228.26 109.831C228.113 109.644 227.928 109.499 227.704 109.396C227.481 109.29 227.231 109.237 226.956 109.237C226.667 109.237 226.408 109.288 226.181 109.391C225.954 109.494 225.768 109.638 225.625 109.825C225.482 110.012 225.393 110.236 225.356 110.496ZM232.527 114.176C232.054 114.176 231.632 114.088 231.262 113.912C230.895 113.732 230.596 113.476 230.365 113.142L230.97 112.251C231.187 112.537 231.427 112.759 231.691 112.916C231.958 113.074 232.235 113.153 232.521 113.153C232.697 113.153 232.853 113.122 232.989 113.059C233.124 112.993 233.233 112.9 233.313 112.779C233.394 112.654 233.434 112.508 233.434 112.339C233.434 112.163 233.388 112.025 233.297 111.926C233.205 111.827 233.068 111.738 232.884 111.657C232.701 111.576 232.47 111.481 232.191 111.371C231.957 111.272 231.733 111.162 231.52 111.041C231.308 110.92 231.132 110.768 230.992 110.584C230.857 110.397 230.789 110.161 230.789 109.875C230.789 109.549 230.879 109.259 231.058 109.006C231.242 108.753 231.491 108.555 231.806 108.412C232.125 108.269 232.488 108.197 232.895 108.197C233.189 108.197 233.484 108.251 233.781 108.357C234.078 108.46 234.375 108.61 234.672 108.808L234.177 109.671C233.748 109.316 233.324 109.138 232.906 109.138C232.661 109.138 232.463 109.197 232.312 109.314C232.166 109.431 232.092 109.582 232.092 109.765C232.092 109.915 232.156 110.044 232.285 110.15C232.413 110.256 232.573 110.35 232.763 110.43C232.954 110.511 233.145 110.588 233.335 110.661C233.636 110.771 233.9 110.889 234.127 111.013C234.355 111.138 234.532 111.299 234.661 111.497C234.789 111.695 234.853 111.959 234.853 112.289C234.853 112.685 234.758 113.025 234.567 113.307C234.38 113.589 234.113 113.806 233.764 113.956C233.416 114.103 233.003 114.176 232.527 114.176Z" fill="#9AA0A4"/>
<path d="M255.333 114.5L251.292 109.25L259.375 109.25L255.333 114.5Z" fill="#BEC9CF"/>
<path d="M204 100H262V98H204V100ZM262 122H204V124H262V122ZM204 122C197.925 122 193 117.075 193 111H191C191 118.18 196.82 124 204 124V122ZM273 111C273 117.075 268.075 122 262 122V124C269.18 124 275 118.18 275 111H273ZM262 100C268.075 100 273 104.925 273 111H275C275 103.82 269.18 98 262 98V100ZM204 98C196.82 98 191 103.82 191 111H193C193 104.925 197.925 100 204 100V98Z" fill="#D2DCE1"/>
<path d="M629.238 115V105.925H631.729C632.374 105.925 632.974 106.04 633.527 106.271C634.081 106.502 634.565 106.825 634.98 107.239C635.398 107.654 635.722 108.136 635.953 108.686C636.188 109.236 636.305 109.83 636.305 110.468C636.305 111.11 636.19 111.705 635.959 112.255C635.728 112.802 635.403 113.282 634.985 113.696C634.571 114.107 634.085 114.428 633.527 114.659C632.974 114.886 632.374 115 631.729 115H629.238ZM631.02 113.405H631.531C631.942 113.405 632.321 113.332 632.67 113.185C633.018 113.038 633.32 112.833 633.577 112.569C633.834 112.305 634.034 111.995 634.177 111.639C634.32 111.28 634.391 110.888 634.391 110.462C634.391 110.041 634.32 109.652 634.177 109.296C634.034 108.937 633.834 108.625 633.577 108.361C633.32 108.094 633.018 107.887 632.67 107.74C632.321 107.593 631.942 107.52 631.531 107.52H631.02V113.405ZM640.206 115.176C639.689 115.176 639.218 115.048 638.793 114.791C638.371 114.531 638.036 114.175 637.786 113.724C637.541 113.269 637.418 112.752 637.418 112.173C637.418 111.608 637.537 111.102 637.775 110.655C638.014 110.204 638.342 109.848 638.76 109.588C639.181 109.324 639.664 109.192 640.206 109.192C640.606 109.192 640.978 109.269 641.323 109.423C641.671 109.573 641.955 109.784 642.175 110.055V109.368H643.864V115H642.175V114.257C641.919 114.554 641.623 114.782 641.29 114.939C640.956 115.097 640.595 115.176 640.206 115.176ZM640.707 113.74C641 113.74 641.26 113.674 641.488 113.542C641.715 113.407 641.893 113.222 642.021 112.987C642.15 112.752 642.214 112.485 642.214 112.184C642.214 111.88 642.148 111.612 642.016 111.381C641.887 111.146 641.71 110.963 641.482 110.831C641.259 110.695 641 110.627 640.707 110.627C640.417 110.627 640.159 110.695 639.931 110.831C639.704 110.963 639.524 111.146 639.392 111.381C639.26 111.616 639.194 111.883 639.194 112.184C639.194 112.485 639.258 112.752 639.387 112.987C639.519 113.222 639.698 113.407 639.926 113.542C640.153 113.674 640.413 113.74 640.707 113.74ZM645.576 117.86L647.397 114.296L644.718 109.368H646.654L648.381 112.668L649.877 109.368H651.813L647.507 117.86H645.576Z" fill="#C4CCD0"/>
<path d="M680.849 115L678.237 105.925H680.217L681.933 112.558L683.869 105.925H685.205L687.136 112.558L688.852 105.925H690.837L688.219 115H686.239L684.534 109.362L682.835 115H680.849ZM693.991 115.176C693.382 115.176 692.836 115.046 692.352 114.785C691.871 114.521 691.49 114.164 691.208 113.713C690.925 113.262 690.784 112.752 690.784 112.184C690.784 111.766 690.863 111.375 691.021 111.012C691.182 110.649 691.406 110.332 691.692 110.061C691.978 109.786 692.309 109.573 692.687 109.423C693.065 109.269 693.474 109.192 693.914 109.192C694.5 109.192 695.014 109.315 695.454 109.56C695.897 109.802 696.242 110.14 696.488 110.572C696.737 111.005 696.862 111.509 696.862 112.085C696.862 112.133 696.86 112.175 696.856 112.211C696.856 112.244 696.851 112.309 696.84 112.404H692.522C692.522 112.69 692.586 112.939 692.715 113.152C692.847 113.365 693.03 113.531 693.265 113.652C693.499 113.77 693.772 113.828 694.084 113.828C694.377 113.828 694.636 113.772 694.86 113.658C695.087 113.544 695.305 113.363 695.514 113.113L696.73 113.724C696.466 114.179 696.092 114.534 695.608 114.791C695.124 115.048 694.585 115.176 693.991 115.176ZM692.583 111.469H695.201C695.164 111.253 695.085 111.066 694.964 110.908C694.847 110.75 694.696 110.629 694.513 110.545C694.33 110.461 694.123 110.418 693.892 110.418C693.646 110.418 693.43 110.461 693.243 110.545C693.056 110.629 692.905 110.75 692.792 110.908C692.678 111.066 692.608 111.253 692.583 111.469ZM701.091 115.176C700.482 115.176 699.936 115.046 699.452 114.785C698.972 114.521 698.59 114.164 698.308 113.713C698.026 113.262 697.885 112.752 697.885 112.184C697.885 111.766 697.963 111.375 698.121 111.012C698.282 110.649 698.506 110.332 698.792 110.061C699.078 109.786 699.41 109.573 699.788 109.423C700.165 109.269 700.574 109.192 701.014 109.192C701.601 109.192 702.114 109.315 702.554 109.56C702.998 109.802 703.342 110.14 703.588 110.572C703.837 111.005 703.962 111.509 703.962 112.085C703.962 112.133 703.96 112.175 703.957 112.211C703.957 112.244 703.951 112.309 703.94 112.404H699.623C699.623 112.69 699.687 112.939 699.815 113.152C699.947 113.365 700.13 113.531 700.365 113.652C700.6 113.77 700.873 113.828 701.185 113.828C701.478 113.828 701.736 113.772 701.96 113.658C702.187 113.544 702.406 113.363 702.615 113.113L703.83 113.724C703.566 114.179 703.192 114.534 702.708 114.791C702.224 115.048 701.685 115.176 701.091 115.176ZM699.683 111.469H702.301C702.264 111.253 702.186 111.066 702.065 110.908C701.947 110.75 701.797 110.629 701.614 110.545C701.43 110.461 701.223 110.418 700.992 110.418C700.746 110.418 700.53 110.461 700.343 110.545C700.156 110.629 700.006 110.75 699.892 110.908C699.778 111.066 699.709 111.253 699.683 111.469ZM705.486 115V105.54H707.174V111.425L709.253 109.368H711.442L708.687 112.129L711.569 115H709.402L707.174 112.772V115H705.486Z" fill="#0561FC"/>
<path d="M738.82 115L739.722 105.925H741.614L743.78 111.601L745.948 105.925H747.84L748.742 115H746.96L746.399 109.126L744.325 114.774H743.231L741.163 109.126L740.596 115H738.82ZM753.359 115.176C752.739 115.176 752.18 115.05 751.682 114.796C751.183 114.54 750.787 114.188 750.494 113.74C750.2 113.289 750.054 112.771 750.054 112.184C750.054 111.597 750.198 111.08 750.488 110.633C750.781 110.182 751.177 109.83 751.676 109.577C752.178 109.32 752.739 109.192 753.359 109.192C753.982 109.192 754.543 109.32 755.042 109.577C755.541 109.83 755.935 110.182 756.225 110.633C756.518 111.08 756.665 111.597 756.665 112.184C756.665 112.771 756.518 113.289 756.225 113.74C755.935 114.188 755.541 114.54 755.042 114.796C754.543 115.05 753.982 115.176 753.359 115.176ZM753.365 113.735C753.651 113.735 753.911 113.669 754.146 113.537C754.38 113.405 754.565 113.223 754.701 112.992C754.837 112.758 754.905 112.488 754.905 112.184C754.905 111.88 754.837 111.612 754.701 111.381C754.565 111.146 754.38 110.963 754.146 110.831C753.911 110.699 753.651 110.633 753.365 110.633C753.075 110.633 752.813 110.699 752.578 110.831C752.347 110.963 752.164 111.146 752.028 111.381C751.892 111.612 751.825 111.88 751.825 112.184C751.825 112.488 751.892 112.758 752.028 112.992C752.164 113.223 752.347 113.405 752.578 113.537C752.813 113.669 753.075 113.735 753.365 113.735ZM758.138 115V109.368H759.827V109.995C760.043 109.753 760.312 109.559 760.635 109.412C760.961 109.265 761.321 109.192 761.713 109.192C762.146 109.192 762.525 109.287 762.852 109.478C763.182 109.665 763.44 109.927 763.627 110.264C763.814 110.598 763.908 110.989 763.908 111.436V115H762.219V111.793C762.219 111.39 762.113 111.077 761.9 110.853C761.691 110.626 761.403 110.512 761.037 110.512C760.787 110.512 760.571 110.563 760.388 110.666C760.208 110.765 760.069 110.902 759.97 111.078C759.874 111.251 759.827 111.447 759.827 111.667V115H758.138ZM767.664 115.176C767.103 115.176 766.666 114.998 766.355 114.642C766.043 114.283 765.887 113.783 765.887 113.141V110.649H765.134V109.368H765.887V107.256H767.576V109.368H768.813V110.649H767.576V113.02C767.576 113.233 767.618 113.394 767.702 113.504C767.79 113.614 767.913 113.669 768.071 113.669C768.247 113.669 768.415 113.61 768.577 113.493L769 114.846C768.809 114.949 768.595 115.029 768.357 115.088C768.122 115.147 767.891 115.176 767.664 115.176ZM770.459 115V105.54H772.148V109.995C772.364 109.753 772.634 109.559 772.956 109.412C773.283 109.265 773.642 109.192 774.034 109.192C774.467 109.192 774.847 109.287 775.173 109.478C775.503 109.665 775.761 109.927 775.948 110.264C776.135 110.598 776.229 110.989 776.229 111.436V115H774.54V111.793C774.54 111.39 774.434 111.077 774.221 110.853C774.012 110.626 773.725 110.512 773.358 110.512C773.109 110.512 772.892 110.563 772.709 110.666C772.529 110.765 772.39 110.902 772.291 111.078C772.196 111.251 772.148 111.447 772.148 111.667V115H770.459Z" fill="#C4CCD0"/>
<path d="M807.278 115V110.957L803.983 105.925H806.129L808.169 109.142L810.21 105.925H812.355L809.06 110.957V115H807.278ZM815.028 115.176C814.419 115.176 813.873 115.046 813.389 114.785C812.908 114.521 812.527 114.164 812.245 113.713C811.962 113.262 811.821 112.752 811.821 112.184C811.821 111.766 811.9 111.375 812.058 111.012C812.219 110.649 812.443 110.332 812.729 110.061C813.015 109.786 813.347 109.573 813.724 109.423C814.102 109.269 814.511 109.192 814.951 109.192C815.537 109.192 816.051 109.315 816.491 109.56C816.934 109.802 817.279 110.14 817.525 110.572C817.774 111.005 817.899 111.509 817.899 112.085C817.899 112.133 817.897 112.175 817.893 112.211C817.893 112.244 817.888 112.309 817.877 112.404H813.559C813.559 112.69 813.623 112.939 813.752 113.152C813.884 113.365 814.067 113.531 814.302 113.652C814.536 113.77 814.81 113.828 815.121 113.828C815.415 113.828 815.673 113.772 815.897 113.658C816.124 113.544 816.342 113.363 816.551 113.113L817.767 113.724C817.503 114.179 817.129 114.534 816.645 114.791C816.161 115.048 815.622 115.176 815.028 115.176ZM813.62 111.469H816.238C816.201 111.253 816.122 111.066 816.001 110.908C815.884 110.75 815.734 110.629 815.55 110.545C815.367 110.461 815.16 110.418 814.929 110.418C814.683 110.418 814.467 110.461 814.28 110.545C814.093 110.629 813.942 110.75 813.829 110.908C813.715 111.066 813.645 111.253 813.62 111.469ZM821.717 115.176C821.2 115.176 820.729 115.048 820.304 114.791C819.882 114.531 819.546 114.175 819.297 113.724C819.051 113.269 818.929 112.752 818.929 112.173C818.929 111.608 819.048 111.102 819.286 110.655C819.524 110.204 819.853 109.848 820.271 109.588C820.692 109.324 821.174 109.192 821.717 109.192C822.117 109.192 822.489 109.269 822.834 109.423C823.182 109.573 823.466 109.784 823.686 110.055V109.368H825.375V115H823.686V114.257C823.429 114.554 823.134 114.782 822.801 114.939C822.467 115.097 822.106 115.176 821.717 115.176ZM822.218 113.74C822.511 113.74 822.771 113.674 822.999 113.542C823.226 113.407 823.404 113.222 823.532 112.987C823.66 112.752 823.725 112.485 823.725 112.184C823.725 111.88 823.659 111.612 823.527 111.381C823.398 111.146 823.22 110.963 822.993 110.831C822.769 110.695 822.511 110.627 822.218 110.627C821.928 110.627 821.669 110.695 821.442 110.831C821.215 110.963 821.035 111.146 820.903 111.381C820.771 111.616 820.705 111.883 820.705 112.184C820.705 112.485 820.769 112.752 820.898 112.987C821.03 113.222 821.209 113.407 821.437 113.542C821.664 113.674 821.924 113.74 822.218 113.74ZM827.361 115V109.368H829.049V110.176C829.258 109.861 829.513 109.619 829.814 109.45C830.118 109.278 830.444 109.192 830.793 109.192C830.991 109.192 831.196 109.221 831.409 109.28C831.621 109.339 831.799 109.414 831.942 109.505L831.238 110.93C831.114 110.846 830.967 110.78 830.798 110.732C830.633 110.681 830.479 110.655 830.336 110.655C830.116 110.655 829.907 110.712 829.709 110.825C829.511 110.939 829.352 111.088 829.231 111.271C829.11 111.451 829.049 111.645 829.049 111.854V115H827.361Z" fill="#C4CCD0"/>
<defs>
<filter id="filter0_d_8_923" x="0" y="0" width="967" height="581" filterUnits="userSpaceOnUse" color-interpolation-filters="sRGB">
<feFlood flood-opacity="0" result="BackgroundImageFix"/>
<feColorMatrix in="SourceAlpha" type="matrix" values="0 0 0 0 0 0 0 0 0 0 0 0 0 0 0 0 0 0 127 0" result="hardAlpha"/>
<feOffset dy="21"/>
<feGaussianBlur stdDeviation="47"/>
<feComposite in2="hardAlpha" operator="out"/>
<feColorMatrix type="matrix" values="0 0 0 0 0 0 0 0 0 0 0 0 0 0 0 0 0 0 0.03 0"/>
<feBlend mode="normal" in2="BackgroundImageFix" result="effect1_dropShadow_8_923"/>
<feBlend mode="normal" in="SourceGraphic" in2="effect1_dropShadow_8_923" result="shape"/>
</filter>
<linearGradient id="paint0_linear_8_923" x1="506" y1="197" x2="506" y2="416" gradientUnits="userSpaceOnUse">
<stop stop-color="#0561FC" stop-opacity="0.17"/>
<stop offset="1" stop-color="#0561FC" stop-opacity="0"/>
</linearGradient>
</defs>
</svg>
